<?xml version="1.0" standalone="no"?>
<!DOCTYPE svg PUBLIC "-//W3C//DTD SVG 20010904//EN"
 "http://www.w3.org/TR/2001/REC-SVG-20010904/DTD/svg10.dtd">
<svg version="1.0" xmlns="http://www.w3.org/2000/svg"
 width="306.000000pt" height="306.000000pt" viewBox="0 0 306.000000 306.000000"
 preserveAspectRatio="xMidYMid meet">
<metadata>
Created by potrace 1.10, written by Peter Selinger 2001-2011
</metadata>
<g transform="translate(0.000000,306.000000) scale(0.100000,-0.100000)"
fill="#000000" stroke="none">
<path d="M1755 2545 l-30 -25 -5 -167 -5 -168 -565 -5 -565 -5 -55 -28 c-60
-29 -106 -83 -133 -155 -15 -38 -17 -121 -17 -825 0 -749 1 -783 19 -811 43
-65 47 -66 356 -66 309 0 313 1 356 66 18 27 19 56 19 535 0 479 1 507 18 523
17 15 49 16 293 14 l274 -3 5 -162 c5 -154 6 -163 29 -187 49 -52 91 -35 291
114 41 31 102 74 135 95 33 22 66 45 72 51 7 7 43 33 80 58 38 26 109 76 158
111 50 35 119 85 155 109 205 142 220 159 200 220 -7 23 -27 45 -63 69 -29 20
-90 63 -137 97 -47 33 -96 68 -110 77 -14 10 -59 43 -101 73 -43 30 -85 61
-95 67 -30 20 -213 149 -289 204 -38 28 -101 72 -139 100 -78 56 -107 60 -151
24z"/>
</g>
</svg>
