<?xml version="1.0" standalone="no"?>
<!DOCTYPE svg PUBLIC "-//W3C//DTD SVG 20010904//EN"
 "http://www.w3.org/TR/2001/REC-SVG-20010904/DTD/svg10.dtd">
<svg version="1.0" xmlns="http://www.w3.org/2000/svg"
 width="78.000000pt" height="65.000000pt" viewBox="0 0 78.000000 65.000000"
 preserveAspectRatio="xMidYMid meet">
<metadata>
Created by potrace 1.13, written by Peter Selinger 2001-2015
</metadata>
<g transform="translate(0.000000,65.000000) scale(0.100000,-0.100000)"
fill="#000000" stroke="none">
<path d="M96 561 c-43 -31 -77 -62 -76 -67 3 -9 156 -124 165 -124 3 0 5 18 5
40 l0 40 50 0 c59 0 114 -20 128 -47 6 -10 12 -97 14 -193 l3 -175 58 -3 57
-3 0 176 c0 235 7 245 176 245 l84 0 0 50 0 50 -75 0 c-101 0 -171 -16 -208
-49 l-30 -28 -48 33 c-41 27 -62 34 -129 40 l-80 7 0 33 c0 19 -3 34 -7 34 -5
-1 -43 -27 -87 -59z"/>
</g>
</svg>
